<svg id="Layer_1" data-name="Layer 1" xmlns="http://www.w3.org/2000/svg" viewBox="0 0 235.93 156.93"><defs><style>.cls-1{fill:#fff;}</style></defs><title>logo</title><circle class="cls-1" cx="9.46" cy="147.46" r="9.46"/><circle class="cls-1" cx="101.46" cy="147.46" r="9.46"/><circle class="cls-1" cx="9.46" cy="124.46" r="9.46"/><circle class="cls-1" cx="101.46" cy="124.46" r="9.46"/><circle class="cls-1" cx="9.46" cy="101.46" r="9.46"/><circle class="cls-1" cx="101.46" cy="101.46" r="9.46"/><circle class="cls-1" cx="55.46" cy="78.46" r="9.46"/><circle class="cls-1" cx="32.46" cy="78.46" r="9.46"/><circle class="cls-1" cx="9.46" cy="78.46" r="9.46"/><circle class="cls-1" cx="78.46" cy="78.46" r="9.46"/><circle class="cls-1" cx="101.46" cy="78.46" r="9.46"/><circle class="cls-1" cx="9.46" cy="55.46" r="9.46"/><circle class="cls-1" cx="101.46" cy="55.46" r="9.46"/><circle class="cls-1" cx="9.46" cy="32.46" r="9.46"/><circle class="cls-1" cx="101.46" cy="32.46" r="9.46"/><circle class="cls-1" cx="55.46" cy="9.46" r="9.46"/><circle class="cls-1" cx="32.46" cy="9.46" r="9.46"/><circle class="cls-1" cx="78.46" cy="9.46" r="9.46"/><circle class="cls-1" cx="180.46" cy="147.46" r="9.46"/><circle class="cls-1" cx="157.46" cy="147.46" r="9.46"/><circle class="cls-1" cx="134.46" cy="147.46" r="9.46"/><circle class="cls-1" cx="203.46" cy="147.46" r="9.46"/><circle class="cls-1" cx="134.46" cy="124.46" r="9.46"/><circle class="cls-1" cx="226.46" cy="124.46" r="9.46"/><circle class="cls-1" cx="134.46" cy="101.46" r="9.46"/><circle class="cls-1" cx="226.46" cy="101.46" r="9.46"/><circle class="cls-1" cx="134.46" cy="78.46" r="9.46"/><circle class="cls-1" cx="226.46" cy="78.46" r="9.46"/><circle class="cls-1" cx="134.46" cy="55.46" r="9.46"/><circle class="cls-1" cx="226.46" cy="55.46" r="9.46"/><circle class="cls-1" cx="134.46" cy="32.46" r="9.46"/><circle class="cls-1" cx="226.46" cy="32.46" r="9.46"/><circle class="cls-1" cx="180.46" cy="9.46" r="9.46"/><circle class="cls-1" cx="157.46" cy="9.46" r="9.46"/><circle class="cls-1" cx="134.46" cy="9.46" r="9.46"/><circle class="cls-1" cx="203.46" cy="9.46" r="9.46"/></svg>